<svg id="图层_1" data-name="图层 1" xmlns="http://www.w3.org/2000/svg" viewBox="0 0 345.98 100"><defs><style>.cls-1{fill:#fff;}</style></defs><title>黑马程序员</title><path class="cls-1" d="M555.63-301.5l3.69-1.66s3-6.87,12.95-14.57c0,0,7.23-5.62,2.5-11.6a1.22,1.22,0,0,1,.31-1.56c.83-.57,4.11,1.09,4.16,5.15s-2.08,5.2-2.08,5.2a15.57,15.57,0,0,1,6.4,12.59,16.85,16.85,0,0,1-5.72,12.74l-.36-.15s4.19-6.84,2.8-14.21c-1.2-6.34-5.51-7.9-5.51-7.9a41.76,41.76,0,0,0-13,14.88l-.31.72a2.59,2.59,0,0,1-1.71,1.1l-4.79.26,0-.78Z" transform="translate(-527.91 370.21)"/><path class="cls-1" d="M569.42-359.9c-29.61,14-23.88,43-23.88,43l-3.13,6.4a4.62,4.62,0,0,0-.26,3l2.45,6.81,1.09.73,3.59-.21.52-1.3-1.2-.31a1.19,1.19,0,0,1-.93-.42l-3.75-6.29.05-1,.47-.83c7.7-10.14,7-19,7-19l7.13-6.09c-2.08-14.2,6.08-17.27,6.08-17.27a13.61,13.61,0,0,0-1.82,9.88,25.61,25.61,0,0,1,17-9.67,19.91,19.91,0,0,0-3.91,7c9.84-1.82,14.72-10.4,14.72-10.4a14,14,0,0,1-2.44,9.41,54.71,54.71,0,0,0,16.65-9.1l.57.21c-2.45,5.72-9.62,11.65-9.62,11.65,13,4.11,24.86-3.38,24.86-3.38-1.92,6.19-10,10-10,10,7.34,4.79,21.85,3.32,21.85,3.32-2.18,3.91-11.08,6.46-11.08,6.46a11.83,11.83,0,0,1,5.78,9.15A27.51,27.51,0,0,0,617.15-321c1.6,52.48-75.49,53.13-80.6,8s37.08-56.56,37.08-56.56l0-.62c-40.8,9.57-45.06,44.3-45.06,44.3-2.74,19.67,2.86,33.1,15.66,44.59a48.41,48.41,0,0,0,16,8.55l.32.1q2.33.68,4.91,1.16a73.81,73.81,0,0,0,14.08,1.3,64.64,64.64,0,0,0,21.85-4.55c34-15.9,33.47-46.17,33.47-46.17C636.21-355.07,599-373.87,569.42-359.9Z" transform="translate(-527.91 370.21)"/><path class="cls-1" d="M536.55-313c-5.11-45.16,37.08-56.56,37.08-56.56l0-.62c-40.8,9.57-45.06,44.3-45.06,44.3-2.74,19.67,2.86,33.1,15.66,44.59a48.41,48.41,0,0,0,16,8.55l.32.1q2.33.68,4.91,1.16a73.81,73.81,0,0,0,14.08,1.3,64.64,64.64,0,0,0,21.85-4.55c1.84-.86,3.54-1.79,5.18-2.72,16.44-14.42,12.06-36.92,10.57-42.7C617.92-268.51,541.64-268.09,536.55-313Z" transform="translate(-527.91 370.21)"/><path class="cls-1" d="M841.89-327H865.1v8.41h6v-13.31H835.91v14h6ZM669.34-315.76a72.49,72.49,0,0,1,3.42,6.7l5.38-2a54,54,0,0,0-3.68-6.54Zm195.47-19c3.62,0,4.35-2.15,4.46-3.42v-.91h0v-8.69H837.58v13.06h26C864-334.73,864.36-334.75,864.81-334.75Zm-1.67-4.81H843.73v-3.35h19.41Zm-83.69.83h0v-8.77H757.24v13.73h17.3C780-333.84,779.45-338.73,779.45-338.73Zm-5.66.22H762.91v-4.24h10.88ZM659.32-315.68q1.57,3.27,2.94,6.78l5.43-1.71c-.84-1.94-1.91-4.21-3.25-6.82ZM856-320.62a18,18,0,0,0,1.16-4.66H851c-.21,6.29-6.3,10.83-18.63,11.18,1.2,2.14,2.09,3.78,2.84,5.36q12.59-1.59,18-7.49,10,3.93,17.38,7.46l3.29-5.23C868.39-316.21,862.45-318.41,856-320.62Zm-30.6-12.21v-5H797.69V-333h5.81l-3,2.7c2.11,1.14,4.25,2.44,6.42,3.87H796.11v4.86h12.62v4.49c0,1.88-.8,2.83-2.51,2.83-.87,0-2.86-.08-6-.22a40,40,0,0,1,1.19,5.11h8.05l.93-.09a5.1,5.1,0,0,0,3.16-1.62,5.76,5.76,0,0,0,1.22-4v-6.54h6.88l-2.61,5.19,5.25,1.39,3.38-6.9v-4.54h-12ZM811.31-329l-6.1-3.94h12.24Zm-40,10.8h8.45v-4.57h-8.45v-3.38h9.61v-4.75H756.31v4.75h9.13v3.38h-8.37v4.57h8.37v3.5H754.17V-310H781.9v-4.75H771.27Zm39.91-30.27-7.41,0c.28.61.91,2.15,1.31,3.14H789.36v14q.09,12.67-3.53,18.69l4.81,3.93q4.36-6.57,4.36-21.9v-9.71h32.69v-5h-15Zm-82.66,1H697.13v5.1h24.19l-1.09,10.1H705.74l.94-8.3H700l-1.37,13.36H727c-.15,5.92-.34,9.18-.59,9.77a4.34,4.34,0,0,1-1.17,1.51,3.69,3.69,0,0,1-2,.61h-.4l-.3,0-1.46,0H707v5.7h17.64a9.83,9.83,0,0,0,6-1.9,7.23,7.23,0,0,0,2.51-5.32q.3-3.6.58-15.44h-6.77Zm-4.26,23.39H693.63v5.31h30.63ZM671-324.86h15.86v-4.33H671v-2.2h10.18a7.27,7.27,0,0,1,1-.06c4.82,0,4.24-3.85,4.24-3.85h0v-12.27H650.23v16.18h15.45v2.2H649.46v4.33h16.22v2.52H647.24V-318h5a61.33,61.33,0,0,1-4.54,6.91l5.07,2.62a77.47,77.47,0,0,0,4.56-7.44l-5-2.09h31.9l-4.68,2.09c1.69,2.5,3.15,4.89,4.4,7.18l5-2.53a69.24,69.24,0,0,0-4.38-6.74h4.57v-4.33H671Zm0-18.46h5a50,50,0,0,1-4.11,4.77l3.76,2.81c1.62-1.56,3.15-3.16,4.6-4.76l-4.07-2.82h4.66v7.67H671Zm-5.29,7.67h-9.77v-7.67H660l-3.42,2.45a44,44,0,0,1,4.18,5c1.35-1.06,2.71-2.06,4.1-3a55.53,55.53,0,0,0-4.35-4.49h5.21Zm86.4,6.7-1.2,1.14v-4.48h4.86v-4.86h-4.86v-5.13c1.74-.23,3.46-.5,5.21-.79l-1.32-5.11a136.89,136.89,0,0,1-15.2,1.71,41.72,41.72,0,0,1,.77,5.23c1.7-.1,3.39-.25,5.08-.4v4.49h-5.68v4.86h4.87a40.27,40.27,0,0,1-5.12,9.71,55.25,55.25,0,0,1,2,6.86,54.65,54.65,0,0,0,3.89-8.76v15.74h5.46V-324c1,1,1.94,2.15,3,3.34l3.79-3.51Q754.22-327.23,752.08-328.95Z" transform="translate(-527.91 370.21)"/><path class="cls-1" d="M711.94-298.36v-2.76h2.82v2.76Zm0,17.12v-14.4h2.82v14.4Z" transform="translate(-527.91 370.21)"/><path class="cls-1" d="M724.55-283.44l.36,2.16a12.33,12.33,0,0,1-2.13.21,5.47,5.47,0,0,1-2.38-.41,2.49,2.49,0,0,1-1.19-1.11,7.31,7.31,0,0,1-.35-2.87v-8.27h-2.09v-1.91h2.09v-3.57l2.82-1.46v5h2.87v1.91h-2.87v8.41a3.63,3.63,0,0,0,.15,1.33,1.06,1.06,0,0,0,.5.48,2.23,2.23,0,0,0,1,.18A9.91,9.91,0,0,0,724.55-283.44Z" transform="translate(-527.91 370.21)"/><path class="cls-1" d="M726.61-281.24v-19.88h2.81V-294a6.72,6.72,0,0,1,5-2,7.52,7.52,0,0,1,3.2.63,4,4,0,0,1,1.95,1.74,7.09,7.09,0,0,1,.58,3.23v9.11H737.3v-9.12a3.46,3.46,0,0,0-.91-2.66,3.67,3.67,0,0,0-2.58-.83,5,5,0,0,0-2.35.56,3.41,3.41,0,0,0-1.57,1.52,6.21,6.21,0,0,0-.47,2.66v7.87Z" transform="translate(-527.91 370.21)"/><path class="cls-1" d="M755.15-285.88l2.9.31a6.14,6.14,0,0,1-2.55,3.42,8.52,8.52,0,0,1-4.75,1.22,8.22,8.22,0,0,1-5.77-1.94,7,7,0,0,1-2.14-5.44,7.33,7.33,0,0,1,2.16-5.64,7.87,7.87,0,0,1,5.59-2,7.65,7.65,0,0,1,5.44,2,7.14,7.14,0,0,1,2.11,5.51c0,.14,0,.35,0,.64H745.75a5.11,5.11,0,0,0,1.56,3.63,4.89,4.89,0,0,0,3.47,1.27,4.77,4.77,0,0,0,2.64-.7A4.69,4.69,0,0,0,755.15-285.88Zm-9.26-4h9.29a4.47,4.47,0,0,0-1.06-2.71,4.64,4.64,0,0,0-3.5-1.39,4.89,4.89,0,0,0-3.26,1.12A4.15,4.15,0,0,0,745.89-289.84Z" transform="translate(-527.91 370.21)"/><path class="cls-1" d="M761-298.36v-2.76h2.82v2.76Zm0,17.12v-14.4h2.82v14.4Z" transform="translate(-527.91 370.21)"/><path class="cls-1" d="M767.39-281.24v-14.4h2.51v2a5.72,5.72,0,0,1,2.08-1.68,6.61,6.61,0,0,1,3-.64,6.33,6.33,0,0,1,3,.65,3.81,3.81,0,0,1,1.68,1.85,6.26,6.26,0,0,1,5.15-2.5,5.52,5.52,0,0,1,3.82,1.19,4.63,4.63,0,0,1,1.34,3.65v9.87h-2.83v-9.08a5.89,5.89,0,0,0-.27-2.1,2.11,2.11,0,0,0-1-1,3.46,3.46,0,0,0-1.71-.39,4.27,4.27,0,0,0-2.92,1,4.08,4.08,0,0,0-1.16,3.23v8.37h-2.83v-9.36a3.68,3.68,0,0,0-.68-2.44,2.81,2.81,0,0,0-2.25-.81,4.63,4.63,0,0,0-2.21.54,3.23,3.23,0,0,0-1.45,1.58,7.88,7.88,0,0,0-.46,3v7.48Z" transform="translate(-527.91 370.21)"/><path class="cls-1" d="M804.26-283a10.47,10.47,0,0,1-3,1.63,10.26,10.26,0,0,1-3.13.47,6.79,6.79,0,0,1-4.24-1.16,3.58,3.58,0,0,1-1.47-3A3.49,3.49,0,0,1,793-287a4.11,4.11,0,0,1,1.47-1.4,7.19,7.19,0,0,1,2-.81c.56-.12,1.39-.24,2.53-.36a30.83,30.83,0,0,0,5-.83c0-.35,0-.55,0-.64a2.44,2.44,0,0,0-.81-2.1,5.25,5.25,0,0,0-3.24-.83,5.81,5.81,0,0,0-3,.59,3.65,3.65,0,0,0-1.42,2.12l-2.72-.31a5.31,5.31,0,0,1,1.24-2.46,5.28,5.28,0,0,1,2.48-1.44,12.28,12.28,0,0,1,3.77-.51,11.37,11.37,0,0,1,3.46.43,4.85,4.85,0,0,1,2,1.09,3.66,3.66,0,0,1,.87,1.64,11.32,11.32,0,0,1,.15,2.26v3.25A30.75,30.75,0,0,0,807-283a5.07,5.07,0,0,0,.69,1.74h-2.91A4.7,4.7,0,0,1,804.26-283Zm-.23-5.43a23.83,23.83,0,0,1-4.63.91,13.43,13.43,0,0,0-2.46.49,2.3,2.3,0,0,0-1.12.8,1.79,1.79,0,0,0-.39,1.14,2,2,0,0,0,.86,1.63,4.21,4.21,0,0,0,2.52.65,6.81,6.81,0,0,0,2.92-.62,4.18,4.18,0,0,0,1.87-1.69,5,5,0,0,0,.46-2.42Z" transform="translate(-527.91 370.21)"/><path class="cls-1" d="M829.62-286.5l2.77.31a6,6,0,0,1-2.31,3.86,7.38,7.38,0,0,1-4.58,1.4,7.7,7.7,0,0,1-5.47-1.92,7.22,7.22,0,0,1-2.07-5.53,8.92,8.92,0,0,1,.89-4.08,5.81,5.81,0,0,1,2.7-2.62,9.1,9.1,0,0,1,4-.87,7.51,7.51,0,0,1,4.41,1.2,5.35,5.35,0,0,1,2.2,3.39l-2.73.31a3.84,3.84,0,0,0-1.37-2.17,4,4,0,0,0-2.39-.72,4.67,4.67,0,0,0-3.44,1.31,5.77,5.77,0,0,0-1.31,4.18,5.88,5.88,0,0,0,1.27,4.2,4.41,4.41,0,0,0,3.32,1.31,4.2,4.2,0,0,0,2.74-.87A4.07,4.07,0,0,0,829.62-286.5Z" transform="translate(-527.91 370.21)"/><path class="cls-1" d="M833.09-288.44c0-2.66.85-4.63,2.57-5.91a8.51,8.51,0,0,1,5.22-1.6,8,8,0,0,1,5.6,1.95,6.79,6.79,0,0,1,2.18,5.35,8.49,8.49,0,0,1-1,4.38,6.43,6.43,0,0,1-2.8,2.46,9.31,9.31,0,0,1-4,.88,8.11,8.11,0,0,1-5.64-1.93A7.15,7.15,0,0,1,833.09-288.44Zm2.91,0a5.61,5.61,0,0,0,1.39,4.14,4.76,4.76,0,0,0,3.49,1.37,4.75,4.75,0,0,0,3.48-1.37,5.75,5.75,0,0,0,1.39-4.22,5.42,5.42,0,0,0-1.4-4,4.73,4.73,0,0,0-3.47-1.37,4.8,4.8,0,0,0-3.49,1.36A5.6,5.6,0,0,0,836-288.45Z" transform="translate(-527.91 370.21)"/><path class="cls-1" d="M851.3-281.24v-14.4h2.51v2a5.72,5.72,0,0,1,2.08-1.68,6.6,6.6,0,0,1,3-.64,6.31,6.31,0,0,1,3,.65,3.67,3.67,0,0,1,1.68,1.85,6.26,6.26,0,0,1,5.15-2.5,5.58,5.58,0,0,1,3.83,1.19,4.66,4.66,0,0,1,1.33,3.65v9.87h-2.82v-9.08a5.63,5.63,0,0,0-.28-2.1,2.11,2.11,0,0,0-1-1,3.47,3.47,0,0,0-1.7-.39,4.28,4.28,0,0,0-2.93,1,4.08,4.08,0,0,0-1.16,3.23v8.37h-2.82v-9.36a3.68,3.68,0,0,0-.69-2.44,2.81,2.81,0,0,0-2.25-.81,4.53,4.53,0,0,0-2.19.54,3.22,3.22,0,0,0-1.47,1.58,7.88,7.88,0,0,0-.46,3v7.48Z" transform="translate(-527.91 370.21)"/><path class="cls-1" d="M651.29-281.21l-3.95-14.55h2.43l2.74,9.54,2.54-9.54h2.41l2.48,9.54,2.78-9.54h2.48l-4,14.55h-2.41l-2.54-10.13-2.51,10.13Z" transform="translate(-527.91 370.21)"/><path class="cls-1" d="M670.05-281.21l-3.95-14.55h2.43l2.74,9.54,2.54-9.54h2.42l2.47,9.54,2.78-9.54H684l-4,14.55h-2.41L675-291.34l-2.51,10.13Z" transform="translate(-527.91 370.21)"/><path class="cls-1" d="M688.81-281.21l-3.95-14.55h2.44l2.73,9.54,2.54-9.54H695l2.47,9.54,2.78-9.54h2.29l-4,14.55h-2.2l-2.55-10.13-2.51,10.13Z" transform="translate(-527.91 370.21)"/><rect class="cls-1" x="176.85" y="86.17" width="2.82" height="2.76"/><rect class="cls-1" x="283.62" y="86.36" width="2.82" height="2.76"/></svg>